<svg width="128" height="128" viewBox="0 0 128 128" fill="none" xmlns="http://www.w3.org/2000/svg">
<path d="M108 16H20C15.5817 16 12 19.5817 12 24V108C12 112.418 15.5817 116 20 116H108C112.418 116 116 112.418 116 108V24C116 19.5817 112.418 16 108 16Z" fill="url(#paint0_linear_2215_19)"/>
<path d="M108 12H20C15.5817 12 12 15.5817 12 20V104C12 108.418 15.5817 112 20 112H108C112.418 112 116 108.418 116 104V20C116 15.5817 112.418 12 108 12Z" fill="white"/>
<path d="M100 88H28C25.7909 88 24 89.7909 24 92C24 94.2091 25.7909 96 28 96H100C102.209 96 104 94.2091 104 92C104 89.7909 102.209 88 100 88Z" fill="#E1DEDB"/>
<path d="M68.125 88H28C25.7909 88 24 89.7909 24 92C24 94.2091 25.7909 96 28 96H68.125C70.3341 96 72.125 94.2091 72.125 92C72.125 89.7909 70.3341 88 68.125 88Z" fill="#E435C8"/>
<path fill-rule="evenodd" clip-rule="evenodd" d="M44.5 24C40.9101 24 38 26.9101 38 30.5V69.5C38 73.0899 40.9101 76 44.5 76H73.009C73.3578 75.5646 73.7434 75.114 74.1657 74.648C75.6997 73.01 77.8577 71.125 80.6397 68.993L80.7567 68.096C80.9387 67.134 81.1467 65.756 81.3807 63.962C80.8607 65.834 80.1327 67.264 79.1967 68.252C78.2607 69.214 77.2727 69.695 76.2327 69.695C75.0627 69.695 74.1007 69.162 73.3467 68.096C72.6187 67.004 72.2547 65.652 72.2547 64.04C72.2547 62.09 72.3847 60.309 72.6447 58.697C72.9047 57.059 73.3337 55.33 73.9317 53.51C74.1917 52.73 74.5557 52.171 75.0237 51.833C75.4917 51.495 76.2327 51.326 77.2467 51.326C77.8187 51.326 78.2087 51.417 78.4167 51.599C78.6507 51.781 78.7677 52.054 78.7677 52.418C78.7677 52.626 78.6247 53.328 78.3387 54.524C78.0787 55.486 77.8707 56.357 77.7147 57.137C77.5067 58.203 77.3247 59.23 77.1687 60.218C77.0127 61.18 76.9347 61.973 76.9347 62.597C76.9347 63.585 77.2077 64.079 77.7537 64.079C78.1437 64.079 78.6247 63.689 79.1967 62.909C79.7947 62.129 80.4187 60.946 81.0687 59.36C81.7447 57.774 82.3947 55.824 83.0187 53.51C83.2267 52.73 83.5387 52.171 83.9547 51.833C84.3967 51.495 85.0467 51.326 85.9047 51.326C86.5027 51.326 86.9187 51.404 87.1527 51.56C87.3867 51.716 87.5037 51.976 87.5037 52.34C87.5037 52.99 87.1657 55.226 86.4897 59.048L85.4757 65.327C87.0145 64.1679 88.5226 63.0856 90 62.0801V30.5C90 26.9101 87.0899 24 83.5 24H44.5ZM85.593 37.949C85.203 37.559 84.605 37.286 83.799 37.13C82.525 36.896 81.03 36.727 79.314 36.623C77.624 36.519 75.349 36.467 72.489 36.467C67.861 36.467 64.065 36.779 61.101 37.403C58.163 38.027 55.966 39.015 54.51 40.367C53.08 41.693 52.365 43.461 52.365 45.671C52.365 46.711 52.534 47.647 52.872 48.479C53.21 49.285 53.639 49.909 54.159 50.351C54.445 50.611 54.809 50.741 55.251 50.741C55.875 50.741 56.473 50.533 57.045 50.117C57.643 49.675 57.942 49.207 57.942 48.713C57.942 48.505 57.89 48.31 57.786 48.128C57.266 47.322 57.006 46.477 57.006 45.593C57.006 44.631 57.305 43.851 57.903 43.253C58.527 42.629 59.567 42.148 61.023 41.81C62.479 41.472 64.481 41.264 67.029 41.186C66.899 41.81 66.782 42.382 66.678 42.902C66.574 43.396 66.483 43.838 66.405 44.228C66.041 45.97 65.677 47.816 65.313 49.766C64.949 51.716 64.624 53.679 64.338 55.655C64.182 56.825 63.961 58.203 63.675 59.789C63.415 61.375 63.181 62.896 62.973 64.352C62.791 65.782 62.7 66.809 62.7 67.433C62.7 68.109 62.934 68.655 63.402 69.071C63.87 69.487 64.533 69.695 65.391 69.695C66.197 69.695 66.886 69.5 67.458 69.11C68.03 68.694 68.342 68.109 68.394 67.355C68.498 65.925 68.706 64.053 69.018 61.739C69.33 59.399 69.629 57.345 69.915 55.577C70.721 50.741 71.605 45.931 72.567 41.147C74.699 41.173 76.415 41.225 77.715 41.303C79.041 41.355 80.874 41.472 83.214 41.654C84.254 41.732 85.008 41.576 85.476 41.186C85.97 40.796 86.217 40.172 86.217 39.314C86.217 38.794 86.009 38.339 85.593 37.949Z" fill="#FF9BD6"/>
<path d="M90 66.3652L84.6957 69.929C84.288 72.1496 83.8273 74.1733 83.3134 76H83.5C87.0899 76 90 73.0899 90 69.5V66.3652Z" fill="#FF9BD6"/>
<path d="M79.1696 76C79.3606 75.2806 79.5517 74.5049 79.7427 73.673C78.7812 74.4846 77.9457 75.2603 77.236 76H79.1696Z" fill="#FF9BD6"/>
<defs>
<linearGradient id="paint0_linear_2215_19" x1="11.9997" y1="115.999" x2="115.998" y2="115.999" gradientUnits="userSpaceOnUse">
<stop stop-color="#ACABAE"/>
<stop offset="0.038" stop-color="#F7F7F7"/>
<stop offset="0.077" stop-color="#DEDDDA"/>
<stop offset="0.923" stop-color="#B0AFAD"/>
<stop offset="0.962" stop-color="#C0BFBC"/>
<stop offset="1" stop-color="#77767B"/>
</linearGradient>
</defs>
</svg>
