<svg width="224" height="224" viewBox="0 0 224 224" fill="none" xmlns="http://www.w3.org/2000/svg">
<g clip-path="url(#clip0_2215_27)">
<path fill-rule="evenodd" clip-rule="evenodd" d="M28 0C12.536 0 0 12.536 0 28V196C0 211.464 12.536 224 28 224H150.808C152.311 222.125 153.972 220.183 155.791 218.176C162.399 211.12 171.695 203 183.679 193.816L184.183 189.952C184.967 185.808 185.863 179.872 186.871 172.144C184.631 180.208 181.495 186.368 177.463 190.624C173.431 194.768 169.175 196.84 164.695 196.84C159.655 196.84 155.511 194.544 152.263 189.952C149.127 185.248 147.559 179.424 147.559 172.48C147.559 164.08 148.119 156.408 149.239 149.464C150.359 142.408 152.207 134.96 154.783 127.12C155.903 123.76 157.471 121.352 159.487 119.896C161.503 118.44 164.695 117.712 169.063 117.712C171.527 117.712 173.207 118.104 174.103 118.888C175.111 119.672 175.615 120.848 175.615 122.416C175.615 123.312 174.999 126.336 173.767 131.488C172.647 135.632 171.751 139.384 171.079 142.744C170.183 147.336 169.399 151.76 168.727 156.016C168.055 160.16 167.719 163.576 167.719 166.264C167.719 170.52 168.895 172.648 171.247 172.648C172.927 172.648 174.999 170.968 177.463 167.608C180.039 164.248 182.727 159.152 185.527 152.32C188.439 145.488 191.239 137.088 193.927 127.12C194.823 123.76 196.167 121.352 197.959 119.896C199.863 118.44 202.663 117.712 206.359 117.712C208.935 117.712 210.727 118.048 211.735 118.72C212.743 119.392 213.247 120.512 213.247 122.08C213.247 124.88 211.791 134.512 208.879 150.976L204.511 178.024C211.139 173.031 217.636 168.369 224 164.037V28C224 12.536 211.464 0 196 0H28ZM205.016 60.088C203.336 58.408 200.76 57.232 197.288 56.56C191.8 55.552 185.36 54.824 177.968 54.376C170.688 53.928 160.888 53.704 148.568 53.704C128.632 53.704 112.28 55.048 99.512 57.736C86.856 60.424 77.392 64.68 71.12 70.504C64.96 76.216 61.88 83.832 61.88 93.352C61.88 97.832 62.608 101.864 64.064 105.448C65.52 108.92 67.368 111.608 69.608 113.512C70.84 114.632 72.408 115.192 74.312 115.192C77 115.192 79.576 114.296 82.04 112.504C84.616 110.6 85.904 108.584 85.904 106.456C85.904 105.56 85.68 104.72 85.232 103.936C82.992 100.464 81.872 96.824 81.872 93.016C81.872 88.872 83.16 85.512 85.736 82.936C88.424 80.248 92.904 78.176 99.176 76.72C105.448 75.264 114.072 74.368 125.048 74.032C124.488 76.72 123.984 79.184 123.536 81.424C123.088 83.552 122.696 85.456 122.36 87.136C120.792 94.64 119.224 102.592 117.656 110.992C116.088 119.392 114.688 127.848 113.456 136.36C112.784 141.4 111.832 147.336 110.6 154.168C109.48 161 108.472 167.552 107.576 173.824C106.792 179.984 106.4 184.408 106.4 187.096C106.4 190.008 107.408 192.36 109.424 194.152C111.44 195.944 114.296 196.84 117.992 196.84C121.464 196.84 124.432 196 126.896 194.32C129.36 192.528 130.704 190.008 130.928 186.76C131.376 180.6 132.272 172.536 133.616 162.568C134.96 152.488 136.248 143.64 137.48 136.024C140.952 115.192 144.76 94.472 148.904 73.864C158.088 73.976 165.48 74.2 171.08 74.536C176.792 74.76 184.688 75.264 194.768 76.048C199.248 76.384 202.496 75.712 204.512 74.032C206.64 72.352 207.704 69.664 207.704 65.968C207.704 63.728 206.808 61.768 205.016 60.088Z" fill="#FF9BD6"/>
<path d="M224 182.496L201.151 197.848C199.395 207.414 197.41 216.131 195.196 224H196C211.464 224 224 211.464 224 196V182.496Z" fill="#FF9BD6"/>
<path d="M177.346 224C178.169 220.901 178.992 217.56 179.815 213.976C175.673 217.472 172.074 220.814 169.017 224H177.346Z" fill="#FF9BD6"/>
</g>
<defs>
<clipPath id="clip0_2215_27">
<rect width="224" height="224" fill="white"/>
</clipPath>
</defs>
</svg>
