<svg width="48" height="48" viewBox="0 0 48 48" fill="none" xmlns="http://www.w3.org/2000/svg">
<path fill-rule="evenodd" clip-rule="evenodd" d="M8.875 5C6.18261 5 4 7.18261 4 9.875V39.125C4 41.8174 6.18261 44 8.875 44H30.2567C30.5184 43.6735 30.8076 43.3355 31.1243 42.986C32.2748 41.7575 33.8933 40.3438 35.9798 38.7447L36.0675 38.072C36.204 37.3505 36.36 36.317 36.5355 34.9715C36.1455 36.3755 35.5995 37.448 34.8975 38.189C34.1955 38.9105 33.4545 39.2713 32.6745 39.2713C31.797 39.2713 31.0755 38.8715 30.51 38.072C29.964 37.253 29.691 36.239 29.691 35.03C29.691 33.5675 29.7885 32.2317 29.9835 31.0227C30.1785 29.7942 30.5003 28.4975 30.9488 27.1325C31.1438 26.5475 31.4168 26.1282 31.7678 25.8748C32.1188 25.6213 32.6745 25.4945 33.435 25.4945C33.864 25.4945 34.1565 25.5627 34.3125 25.6992C34.488 25.8357 34.5758 26.0405 34.5758 26.3135C34.5758 26.4695 34.4685 26.996 34.254 27.893C34.059 28.6145 33.903 29.2678 33.786 29.8528C33.63 30.6523 33.4935 31.4225 33.3765 32.1635C33.2595 32.885 33.201 33.4798 33.201 33.9478C33.201 34.6888 33.4058 35.0592 33.8153 35.0592C34.1078 35.0592 34.4685 34.7667 34.8975 34.1818C35.346 33.5967 35.814 32.7095 36.3015 31.52C36.8085 30.3305 37.296 28.868 37.764 27.1325C37.92 26.5475 38.154 26.1282 38.466 25.8748C38.7975 25.6213 39.285 25.4945 39.9285 25.4945C40.377 25.4945 40.689 25.553 40.8645 25.67C41.04 25.787 41.1278 25.982 41.1278 26.255C41.1278 26.7425 40.8743 28.4195 40.3673 31.286L39.6068 35.9952C40.7609 35.1259 41.892 34.3142 43 33.5601V9.875C43 7.18261 40.8174 5 38.125 5H8.875ZM39.6948 15.4617C39.4023 15.1692 38.9538 14.9645 38.3493 14.8475C37.3938 14.672 36.2725 14.5452 34.9855 14.4672C33.718 14.3892 32.0118 14.3502 29.8667 14.3502C26.3957 14.3502 23.5488 14.5842 21.3257 15.0522C19.1222 15.5202 17.4745 16.2612 16.3825 17.2752C15.31 18.2697 14.7738 19.5957 14.7738 21.2533C14.7738 22.0332 14.9005 22.7352 15.154 23.3592C15.4075 23.9637 15.7293 24.4317 16.1193 24.7632C16.3337 24.9582 16.6067 25.0557 16.9383 25.0557C17.4062 25.0557 17.8548 24.8997 18.2838 24.5878C18.7323 24.2563 18.9565 23.9052 18.9565 23.5347C18.9565 23.3787 18.9175 23.2325 18.8395 23.096C18.4495 22.4915 18.2545 21.8577 18.2545 21.1947C18.2545 20.4732 18.4788 19.8882 18.9273 19.4397C19.3952 18.9717 20.1753 18.611 21.2673 18.3575C22.3593 18.104 23.8608 17.948 25.7718 17.8895C25.6743 18.3575 25.5865 18.7865 25.5085 19.1765C25.4305 19.547 25.3622 19.8785 25.3037 20.171C25.0308 21.4775 24.7577 22.862 24.4848 24.3245C24.2117 25.787 23.968 27.2592 23.7535 28.7412C23.6365 29.6188 23.4708 30.6523 23.2563 31.8418C23.0613 33.0312 22.8858 34.172 22.7298 35.264C22.5933 36.3365 22.525 37.1067 22.525 37.5748C22.525 38.0817 22.7005 38.4912 23.0515 38.8033C23.4025 39.1153 23.8998 39.2713 24.5433 39.2713C25.1478 39.2713 25.6645 39.125 26.0935 38.8325C26.5225 38.5205 26.7565 38.0817 26.7955 37.5163C26.8735 36.4437 27.0295 35.0397 27.2635 33.3042C27.4975 31.5493 27.7218 30.0088 27.9362 28.6827C28.5408 25.0557 29.2038 21.4482 29.9253 17.8602C31.5243 17.8797 32.8113 17.9187 33.7863 17.9772C34.7808 18.0162 36.1555 18.104 37.9105 18.2405C38.6905 18.299 39.256 18.182 39.607 17.8895C39.9775 17.597 40.1628 17.129 40.1628 16.4855C40.1628 16.0955 40.0068 15.7542 39.6948 15.4617Z" fill="#FF9BD6"/>
<path d="M43 36.7739L39.0218 39.4467C38.716 41.1122 38.3705 42.63 37.985 44H38.125C40.8174 44 43 41.8174 43 39.125V36.7739Z" fill="#FF9BD6"/>
<path d="M34.8772 44C35.0205 43.4604 35.1638 42.8787 35.307 42.2548C34.5859 42.8635 33.9592 43.4452 33.427 44H34.8772Z" fill="#FF9BD6"/>
</svg>
