<svg width="27" height="11" viewBox="0 0 27 11" fill="none" xmlns="http://www.w3.org/2000/svg">
<path fill-rule="evenodd" clip-rule="evenodd" d="M1 1C0.447715 1 0 1.44772 0 2V8C0 8.55228 0.447715 9 1 9H5.38599C5.24799 9.17222 5.14731 9.32888 5.08395 9.47C4.99995 9.666 4.95795 9.858 4.95795 10.046C4.95795 10.25 5.02195 10.414 5.14995 10.538C5.27795 10.666 5.44395 10.73 5.64795 10.73C6.02795 10.73 6.33995 10.492 6.58395 10.016C6.72963 9.73875 6.85874 9.40008 6.97129 9H7C7.55228 9 8 8.55228 8 8V7.51772L8.1075 7.44549C8.12239 7.5885 8.14609 7.70333 8.17859 7.79C8.24259 7.95 8.35059 8.03 8.50259 8.03C8.62659 8.03 8.71659 7.998 8.77259 7.934C8.83259 7.866 8.88459 7.738 8.92859 7.55C8.98859 7.306 9.06659 7.074 9.16259 6.854C9.25859 6.634 9.35459 6.458 9.45059 6.326C9.55059 6.19 9.63059 6.122 9.69059 6.122C9.73459 6.122 9.75659 6.154 9.75659 6.218C9.75659 6.246 9.75259 6.3 9.74459 6.38C9.73259 6.44 9.72659 6.5 9.72659 6.56C9.72659 6.744 9.78059 6.89 9.88859 6.998C10.0006 7.106 10.1626 7.16 10.3746 7.16C10.5249 7.16 10.6672 7.12799 10.8014 7.06398C10.8066 7.34854 10.8645 7.57855 10.9751 7.754C11.0951 7.938 11.2851 8.03 11.5451 8.03C11.7974 8.03 12.0638 7.89974 12.3442 7.63922C12.3687 7.68195 12.3966 7.72221 12.4276 7.76C12.5756 7.94 12.7736 8.03 13.0216 8.03C13.3376 8.03 13.5996 7.862 13.8076 7.526C13.8636 7.682 13.9456 7.806 14.0536 7.898C14.1656 7.986 14.2876 8.03 14.4196 8.03C14.5916 8.03 14.7696 7.96 14.9536 7.82C15.0248 7.76583 15.0945 7.70687 15.1627 7.64312C15.1744 7.69878 15.1881 7.74774 15.204 7.79C15.268 7.95 15.376 8.03 15.528 8.03C15.652 8.03 15.742 7.998 15.798 7.934C15.858 7.866 15.91 7.738 15.954 7.55C16.014 7.306 16.092 7.074 16.188 6.854C16.288 6.634 16.384 6.458 16.476 6.326C16.572 6.19 16.646 6.122 16.698 6.122C16.742 6.122 16.764 6.154 16.764 6.218C16.764 6.314 16.738 6.488 16.686 6.74C16.63 7.028 16.602 7.228 16.602 7.34C16.602 7.564 16.654 7.736 16.758 7.856C16.862 7.972 17.016 8.03 17.22 8.03C17.472 8.03 17.696 7.962 17.892 7.826C18.092 7.69 18.278 7.516 18.45 7.304C18.4715 7.27908 18.49 7.25128 18.5054 7.22059C18.6631 7.46401 18.8628 7.65381 19.1045 7.79C19.3925 7.95 19.7145 8.03 20.0705 8.03C20.5345 8.03 20.9565 7.904 21.3365 7.652C21.7205 7.4 22.0225 7.042 22.2425 6.578C22.4665 6.114 22.5785 5.578 22.5785 4.97C22.5785 4.538 22.4945 4.168 22.3265 3.86C22.1585 3.548 21.9305 3.312 21.6425 3.152C21.3585 2.992 21.0385 2.912 20.6825 2.912C20.2185 2.912 19.7945 3.038 19.4105 3.29C19.0305 3.542 18.7285 3.9 18.5045 4.364C18.2845 4.828 18.1745 5.364 18.1745 5.972C18.1745 6.24071 18.207 6.4862 18.272 6.70848C18.259 6.71915 18.2463 6.73166 18.234 6.746C18.05 6.966 17.902 7.126 17.79 7.226C17.682 7.322 17.588 7.37 17.508 7.37C17.392 7.37 17.334 7.29 17.334 7.13C17.334 7.018 17.372 6.788 17.448 6.44C17.536 6.032 17.58 5.75 17.58 5.594C17.58 5.334 17.45 5.204 17.19 5.204C17.058 5.204 16.912 5.25 16.752 5.342C16.596 5.434 16.436 5.588 16.272 5.804C16.108 6.02 15.96 6.3 15.828 6.644C15.844 6.468 15.864 6.32 15.888 6.2C15.912 6.08 15.944 5.94 15.984 5.78C16.044 5.556 16.074 5.412 16.074 5.348C16.074 5.292 16.058 5.254 16.026 5.234C15.994 5.214 15.938 5.204 15.858 5.204C15.71 5.204 15.594 5.232 15.51 5.288C15.43 5.34 15.372 5.424 15.336 5.54C15.1981 5.97594 15.1245 6.43445 15.115 6.91551C14.9974 7.05029 14.8996 7.15379 14.8216 7.226C14.7136 7.322 14.6216 7.37 14.5456 7.37C14.4976 7.37 14.4576 7.352 14.4256 7.316C14.3976 7.28 14.3836 7.232 14.3836 7.172C14.3836 6.992 14.4296 6.672 14.5216 6.212C14.5816 5.896 14.6116 5.696 14.6116 5.612C14.6116 5.472 14.5136 5.402 14.3176 5.402C14.2256 5.402 14.1376 5.41 14.0536 5.426C14.0336 5.338 14.0076 5.278 13.9756 5.246C13.9476 5.21 13.8896 5.192 13.8016 5.192C13.5256 5.192 13.2636 5.28 13.0156 5.456C12.7716 5.628 12.5756 5.858 12.4276 6.146C12.2852 6.41922 12.2114 6.70909 12.2059 7.01563C12.1298 7.0996 12.0635 7.16772 12.0071 7.22C11.8991 7.32 11.8091 7.37 11.7371 7.37C11.6611 7.37 11.6071 7.338 11.5751 7.274C11.5431 7.21 11.5271 7.118 11.5271 6.998C11.5271 6.842 11.5751 6.544 11.6711 6.104C11.7471 5.74 11.7851 5.508 11.7851 5.408C11.7851 5.272 11.6831 5.204 11.4791 5.204C11.3471 5.204 11.2511 5.228 11.1911 5.276C11.1311 5.324 11.0831 5.412 11.0471 5.54C10.9751 5.784 10.9151 6.048 10.8671 6.332C10.865 6.34505 10.863 6.358 10.8611 6.37083C10.7614 6.44494 10.6753 6.482 10.6026 6.482C10.5026 6.482 10.4526 6.412 10.4526 6.272C10.4526 6.232 10.4686 6.132 10.5006 5.972C10.5366 5.772 10.5546 5.646 10.5546 5.594C10.5546 5.334 10.4246 5.204 10.1646 5.204C10.0326 5.204 9.88659 5.25 9.72659 5.342C9.57059 5.434 9.41059 5.588 9.24659 5.804C9.08259 6.02 8.93459 6.3 8.80259 6.644C8.81859 6.468 8.83859 6.32 8.86259 6.2C8.88659 6.08 8.91859 5.94 8.95859 5.78C9.01859 5.556 9.04859 5.412 9.04859 5.348C9.04859 5.292 9.03259 5.254 9.00059 5.234C8.96859 5.214 8.91259 5.204 8.83259 5.204C8.68459 5.204 8.56859 5.232 8.48459 5.288C8.40459 5.34 8.34659 5.424 8.31059 5.54C8.18425 5.93953 8.11183 6.358 8.09335 6.79543C8.06232 6.81622 8.03121 6.83723 8 6.85847V2C8 1.44772 7.55228 1 7 1H1ZM8 6.85847C7.77271 7.01317 7.5407 7.17967 7.30395 7.358L7.45995 6.392C7.56395 5.804 7.61595 5.46 7.61595 5.36C7.61595 5.304 7.59795 5.264 7.56195 5.24C7.52595 5.216 7.46195 5.204 7.36995 5.204C7.23795 5.204 7.13795 5.23 7.06995 5.282C7.00595 5.334 6.95795 5.42 6.92595 5.54C6.82995 5.896 6.72995 6.196 6.62595 6.44C6.52595 6.684 6.42995 6.866 6.33795 6.986C6.24995 7.106 6.17595 7.166 6.11595 7.166C6.03195 7.166 5.98995 7.09 5.98995 6.938C5.98995 6.842 6.00195 6.72 6.02595 6.572C6.04995 6.42 6.07795 6.262 6.10995 6.098C6.13395 5.978 6.16595 5.844 6.20595 5.696C6.24995 5.512 6.27195 5.404 6.27195 5.372C6.27195 5.316 6.25395 5.274 6.21795 5.246C6.18595 5.218 6.12595 5.204 6.03795 5.204C5.88195 5.204 5.76795 5.23 5.69595 5.282C5.62395 5.334 5.56795 5.42 5.52795 5.54C5.43595 5.82 5.36995 6.086 5.32995 6.338C5.28995 6.586 5.26995 6.86 5.26995 7.16C5.26995 7.408 5.32595 7.616 5.43795 7.784C5.55395 7.948 5.70195 8.03 5.88195 8.03C6.04195 8.03 6.19395 7.956 6.33795 7.808C6.48195 7.656 6.59395 7.436 6.67395 7.148C6.63795 7.424 6.60595 7.636 6.57795 7.784L6.55995 7.922C6.13195 8.25 5.79995 8.54 5.56395 8.792C5.49899 8.86369 5.43967 8.93302 5.38599 9H6.03631C5.91817 9.12315 5.82272 9.23982 5.74995 9.35C5.61395 9.566 5.54595 9.754 5.54595 9.914C5.54595 9.982 5.55795 10.038 5.58195 10.082C5.60995 10.126 5.65395 10.148 5.71395 10.148C5.81395 10.148 5.92595 10.032 6.04995 9.8C6.14456 9.62299 6.23918 9.35632 6.33379 9H6.97129C7.05035 8.71897 7.12124 8.40764 7.18395 8.066L8 7.51772V6.85847ZM6.33379 9H6.03631C6.14548 8.8862 6.27403 8.76687 6.42195 8.642C6.39256 8.76998 6.36318 8.88932 6.33379 9ZM7.322 3.146C7.262 3.086 7.17 3.044 7.046 3.02C6.85 2.984 6.62 2.958 6.356 2.942C6.096 2.926 5.746 2.918 5.306 2.918C4.594 2.918 4.01 2.966 3.554 3.062C3.102 3.158 2.764 3.31 2.54 3.518C2.32 3.722 2.21 3.994 2.21 4.334C2.21 4.494 2.236 4.638 2.288 4.766C2.34 4.89 2.406 4.986 2.486 5.054C2.53 5.094 2.586 5.114 2.654 5.114C2.75 5.114 2.842 5.082 2.93 5.018C3.022 4.95 3.068 4.878 3.068 4.802C3.068 4.77 3.06 4.74 3.044 4.712C2.964 4.588 2.924 4.458 2.924 4.322C2.924 4.174 2.97 4.054 3.062 3.962C3.158 3.866 3.318 3.792 3.542 3.74C3.766 3.688 4.074 3.656 4.466 3.644C4.446 3.74 4.428 3.828 4.412 3.908C4.396 3.984 4.382 4.052 4.37 4.112C4.314 4.38 4.258 4.664 4.202 4.964C4.146 5.264 4.096 5.566 4.052 5.87C4.028 6.05 3.994 6.262 3.95 6.506C3.91 6.75 3.874 6.984 3.842 7.208C3.814 7.428 3.8 7.586 3.8 7.682C3.8 7.786 3.836 7.87 3.908 7.934C3.98 7.998 4.082 8.03 4.214 8.03C4.338 8.03 4.444 8 4.532 7.94C4.62 7.876 4.668 7.786 4.676 7.67C4.692 7.45 4.724 7.162 4.772 6.806C4.82 6.446 4.866 6.13 4.91 5.858C5.034 5.114 5.17 4.374 5.318 3.638C5.646 3.642 5.91 3.65 6.11 3.662C6.314 3.67 6.596 3.688 6.956 3.716C7.116 3.728 7.232 3.704 7.304 3.644C7.38 3.584 7.418 3.488 7.418 3.356C7.418 3.276 7.386 3.206 7.322 3.146ZM11.2151 4.694C11.2991 4.77 11.4251 4.808 11.5931 4.808C11.7651 4.808 11.9031 4.762 12.0071 4.67C12.1111 4.574 12.1631 4.446 12.1631 4.286C12.1631 4.154 12.1171 4.052 12.0251 3.98C11.9331 3.908 11.8131 3.872 11.6651 3.872C11.5011 3.872 11.3631 3.92 11.2511 4.016C11.1431 4.108 11.0891 4.224 11.0891 4.364C11.0891 4.504 11.1311 4.614 11.2151 4.694ZM13.4896 7.268C13.4096 7.372 13.3256 7.424 13.2376 7.424C13.1496 7.424 13.0796 7.394 13.0276 7.334C12.9796 7.274 12.9556 7.182 12.9556 7.058C12.9556 6.834 12.9976 6.622 13.0816 6.422C13.1656 6.222 13.2776 6.062 13.4176 5.942C13.5616 5.818 13.7176 5.754 13.8856 5.75L13.6636 6.854C13.6276 7.026 13.5696 7.164 13.4896 7.268ZM20.9525 7.034C20.7165 7.226 20.4425 7.322 20.1305 7.322C19.8145 7.322 19.5565 7.2 19.3565 6.956C19.1565 6.708 19.0565 6.346 19.0565 5.87C19.0565 5.434 19.1225 5.046 19.2545 4.706C19.3865 4.362 19.5705 4.096 19.8065 3.908C20.0425 3.716 20.3145 3.62 20.6225 3.62C20.9385 3.62 21.1965 3.744 21.3965 3.992C21.5965 4.236 21.6965 4.596 21.6965 5.072C21.6965 5.504 21.6325 5.892 21.5045 6.236C21.3765 6.576 21.1925 6.842 20.9525 7.034ZM23.373 7.748C23.693 7.948 24.119 8.048 24.651 8.048C25.251 8.048 25.729 7.922 26.085 7.67C26.445 7.414 26.625 7.05 26.625 6.578C26.625 6.326 26.559 6.114 26.427 5.942C26.299 5.77 26.143 5.634 25.959 5.534C25.775 5.434 25.531 5.322 25.227 5.198C24.975 5.098 24.779 5.012 24.639 4.94C24.499 4.868 24.381 4.778 24.285 4.67C24.193 4.562 24.147 4.432 24.147 4.28C24.147 4.052 24.237 3.876 24.417 3.752C24.601 3.624 24.865 3.56 25.209 3.56C25.453 3.56 25.657 3.604 25.821 3.692C25.985 3.78 26.067 3.908 26.067 4.076C26.067 4.108 26.061 4.184 26.049 4.304C26.037 4.368 26.031 4.438 26.031 4.514C26.031 4.602 26.065 4.678 26.133 4.742C26.205 4.806 26.293 4.838 26.397 4.838C26.545 4.838 26.657 4.774 26.733 4.646C26.809 4.518 26.847 4.328 26.847 4.076C26.847 3.82 26.773 3.604 26.625 3.428C26.481 3.252 26.287 3.122 26.043 3.038C25.799 2.95 25.531 2.906 25.239 2.906C24.847 2.906 24.505 2.968 24.213 3.092C23.925 3.216 23.703 3.39 23.547 3.614C23.395 3.838 23.319 4.094 23.319 4.382C23.319 4.658 23.387 4.89 23.523 5.078C23.663 5.262 23.829 5.408 24.021 5.516C24.217 5.624 24.469 5.738 24.777 5.858C25.017 5.954 25.203 6.036 25.335 6.104C25.467 6.168 25.577 6.25 25.665 6.35C25.753 6.446 25.797 6.562 25.797 6.698C25.797 6.918 25.701 7.09 25.509 7.214C25.317 7.334 25.051 7.394 24.711 7.394C24.383 7.394 24.127 7.35 23.943 7.262C23.763 7.174 23.673 7.04 23.673 6.86C23.673 6.816 23.675 6.774 23.679 6.734C23.687 6.694 23.691 6.666 23.691 6.65C23.703 6.59 23.709 6.52 23.709 6.44C23.709 6.352 23.675 6.28 23.607 6.224C23.539 6.168 23.451 6.14 23.343 6.14C23.195 6.14 23.083 6.198 23.007 6.314C22.931 6.43 22.893 6.598 22.893 6.818C22.893 7.234 23.053 7.544 23.373 7.748Z" fill="white"/>
</svg>
