<svg width="8" height="8" viewBox="0 0 8 8" fill="none" xmlns="http://www.w3.org/2000/svg">
<rect width="8" height="8" rx="1" fill="white"/>
<path fill-rule="evenodd" clip-rule="evenodd" d="M1 0C0.447715 0 0 0.447715 0 1V7C0 7.55228 0.447715 8 1 8H5.38599C5.43967 7.93302 5.49899 7.86369 5.56395 7.792C5.79995 7.54 6.13195 7.25 6.55995 6.922L6.57795 6.784C6.60595 6.636 6.63795 6.424 6.67395 6.148C6.59395 6.436 6.48195 6.656 6.33795 6.808C6.19395 6.956 6.04195 7.03 5.88195 7.03C5.70195 7.03 5.55395 6.948 5.43795 6.784C5.32595 6.616 5.26995 6.408 5.26995 6.16C5.26995 5.86 5.28995 5.586 5.32995 5.338C5.36995 5.086 5.43595 4.82 5.52795 4.54C5.56795 4.42 5.62395 4.334 5.69595 4.282C5.76795 4.23 5.88195 4.204 6.03795 4.204C6.12595 4.204 6.18595 4.218 6.21795 4.246C6.25395 4.274 6.27195 4.316 6.27195 4.372C6.27195 4.404 6.24995 4.512 6.20595 4.696C6.16595 4.844 6.13395 4.978 6.10995 5.098C6.07795 5.262 6.04995 5.42 6.02595 5.572C6.00195 5.72 5.98995 5.842 5.98995 5.938C5.98995 6.09 6.03195 6.166 6.11595 6.166C6.17595 6.166 6.24995 6.106 6.33795 5.986C6.42995 5.866 6.52595 5.684 6.62595 5.44C6.72995 5.196 6.82995 4.896 6.92595 4.54C6.95795 4.42 7.00595 4.334 7.06995 4.282C7.13795 4.23 7.23795 4.204 7.36995 4.204C7.46195 4.204 7.52595 4.216 7.56195 4.24C7.59795 4.264 7.61595 4.304 7.61595 4.36C7.61595 4.46 7.56395 4.804 7.45995 5.392L7.30395 6.358C7.5407 6.17967 7.77271 6.01317 8 5.85847V1C8 0.447715 7.55228 0 7 0H1ZM7.322 2.146C7.262 2.086 7.17 2.044 7.046 2.02C6.85 1.984 6.62 1.958 6.356 1.942C6.096 1.926 5.746 1.918 5.306 1.918C4.594 1.918 4.01 1.966 3.554 2.062C3.102 2.158 2.764 2.31 2.54 2.518C2.32 2.722 2.21 2.994 2.21 3.334C2.21 3.494 2.236 3.638 2.288 3.766C2.34 3.89 2.406 3.986 2.486 4.054C2.53 4.094 2.586 4.114 2.654 4.114C2.75 4.114 2.842 4.082 2.93 4.018C3.022 3.95 3.068 3.878 3.068 3.802C3.068 3.77 3.06 3.74 3.044 3.712C2.964 3.588 2.924 3.458 2.924 3.322C2.924 3.174 2.97 3.054 3.062 2.962C3.158 2.866 3.318 2.792 3.542 2.74C3.766 2.688 4.074 2.656 4.466 2.644C4.446 2.74 4.428 2.828 4.412 2.908C4.396 2.984 4.382 3.052 4.37 3.112C4.314 3.38 4.258 3.664 4.202 3.964C4.146 4.264 4.096 4.566 4.052 4.87C4.028 5.05 3.994 5.262 3.95 5.506C3.91 5.75 3.874 5.984 3.842 6.208C3.814 6.428 3.8 6.586 3.8 6.682C3.8 6.786 3.836 6.87 3.908 6.934C3.98 6.998 4.082 7.03 4.214 7.03C4.338 7.03 4.444 7 4.532 6.94C4.62 6.876 4.668 6.786 4.676 6.67C4.692 6.45 4.724 6.162 4.772 5.806C4.82 5.446 4.866 5.13 4.91 4.858C5.034 4.114 5.17 3.374 5.318 2.638C5.646 2.642 5.91 2.65 6.11 2.662C6.314 2.67 6.596 2.688 6.956 2.716C7.116 2.728 7.232 2.704 7.304 2.644C7.38 2.584 7.418 2.488 7.418 2.356C7.418 2.276 7.386 2.206 7.322 2.146Z" fill="#FF9BD6"/>
<path d="M8 6.51772L7.18395 7.066C7.12124 7.40764 7.05035 7.71897 6.97129 8H7C7.55228 8 8 7.55228 8 7V6.51772Z" fill="#FF9BD6"/>
<path d="M6.33379 8C6.36318 7.88932 6.39256 7.76998 6.42195 7.642C6.27403 7.76687 6.14548 7.8862 6.03631 8H6.33379Z" fill="#FF9BD6"/>
</svg>
