<svg width="27" height="11" viewBox="0 0 27 11" fill="none" xmlns="http://www.w3.org/2000/svg">
<rect y="1" width="8" height="8" rx="1" fill="#FF9BD6"/>
<path d="M7.04601 3.02C7.17001 3.044 7.26201 3.086 7.32201 3.146C7.38601 3.206 7.41801 3.276 7.41801 3.356C7.41801 3.488 7.38001 3.584 7.30401 3.644C7.23201 3.704 7.11601 3.728 6.95601 3.716C6.59601 3.688 6.31401 3.67 6.11001 3.662C5.91001 3.65 5.64601 3.642 5.31801 3.638C5.17001 4.374 5.03401 5.114 4.91001 5.858C4.86601 6.13 4.82001 6.446 4.77201 6.806C4.72401 7.162 4.69201 7.45 4.67601 7.67C4.66801 7.786 4.62001 7.876 4.53201 7.94C4.44401 8 4.33801 8.03 4.21401 8.03C4.08201 8.03 3.98001 7.998 3.90801 7.934C3.83601 7.87 3.80001 7.786 3.80001 7.682C3.80001 7.586 3.81401 7.428 3.84201 7.208C3.87401 6.984 3.91001 6.75 3.95001 6.506C3.99401 6.262 4.02801 6.05 4.05201 5.87C4.09601 5.566 4.14601 5.264 4.20201 4.964C4.25801 4.664 4.31401 4.38 4.37001 4.112C4.38201 4.052 4.39601 3.984 4.41201 3.908C4.42801 3.828 4.44601 3.74 4.46601 3.644C4.07401 3.656 3.76601 3.688 3.54201 3.74C3.31801 3.792 3.15801 3.866 3.06201 3.962C2.97001 4.054 2.92401 4.174 2.92401 4.322C2.92401 4.458 2.96401 4.588 3.04401 4.712C3.06001 4.74 3.06801 4.77 3.06801 4.802C3.06801 4.878 3.02201 4.95 2.93001 5.018C2.84201 5.082 2.75001 5.114 2.65401 5.114C2.58601 5.114 2.53001 5.094 2.48601 5.054C2.40601 4.986 2.34001 4.89 2.28801 4.766C2.23601 4.638 2.21001 4.494 2.21001 4.334C2.21001 3.994 2.32001 3.722 2.54001 3.518C2.76401 3.31 3.10201 3.158 3.55401 3.062C4.01001 2.966 4.59401 2.918 5.30601 2.918C5.74601 2.918 6.09601 2.926 6.35601 2.942C6.62001 2.958 6.85001 2.984 7.04601 3.02Z" fill="white"/>
<path d="M8.34196 6.674C8.39396 6.674 8.43396 6.7 8.46196 6.752C8.49396 6.8 8.50996 6.862 8.50996 6.938C8.50996 7.03 8.49596 7.102 8.46796 7.154C8.43996 7.206 8.39596 7.252 8.33596 7.292L7.18396 8.066C7.03196 8.894 6.83196 9.544 6.58396 10.016C6.33996 10.492 6.02796 10.73 5.64796 10.73C5.44396 10.73 5.27796 10.666 5.14996 10.538C5.02196 10.414 4.95796 10.25 4.95796 10.046C4.95796 9.858 4.99996 9.666 5.08396 9.47C5.17196 9.274 5.33196 9.048 5.56396 8.792C5.79996 8.54 6.13196 8.25 6.55996 7.922L6.57796 7.784C6.60596 7.636 6.63796 7.424 6.67396 7.148C6.59396 7.436 6.48196 7.656 6.33796 7.808C6.19396 7.956 6.04196 8.03 5.88196 8.03C5.70196 8.03 5.55396 7.948 5.43796 7.784C5.32596 7.616 5.26996 7.408 5.26996 7.16C5.26996 6.86 5.28996 6.586 5.32996 6.338C5.36996 6.086 5.43596 5.82 5.52796 5.54C5.56796 5.42 5.62396 5.334 5.69596 5.282C5.76796 5.23 5.88196 5.204 6.03796 5.204C6.12596 5.204 6.18596 5.218 6.21796 5.246C6.25396 5.274 6.27196 5.316 6.27196 5.372C6.27196 5.404 6.24996 5.512 6.20596 5.696C6.16596 5.844 6.13396 5.978 6.10996 6.098C6.07796 6.262 6.04996 6.42 6.02596 6.572C6.00196 6.72 5.98996 6.842 5.98996 6.938C5.98996 7.09 6.03196 7.166 6.11596 7.166C6.17596 7.166 6.24996 7.106 6.33796 6.986C6.42996 6.866 6.52596 6.684 6.62596 6.44C6.72996 6.196 6.82996 5.896 6.92596 5.54C6.95796 5.42 7.00596 5.334 7.06996 5.282C7.13796 5.23 7.23796 5.204 7.36996 5.204C7.46196 5.204 7.52596 5.216 7.56196 5.24C7.59796 5.264 7.61596 5.304 7.61596 5.36C7.61596 5.46 7.56396 5.804 7.45996 6.392L7.30396 7.358C7.61196 7.126 7.91196 6.914 8.20396 6.722C8.25596 6.69 8.30196 6.674 8.34196 6.674ZM5.71396 10.148C5.81396 10.148 5.92596 10.032 6.04996 9.8C6.17396 9.568 6.29796 9.182 6.42196 8.642C6.11396 8.902 5.88996 9.138 5.74996 9.35C5.61396 9.566 5.54596 9.754 5.54596 9.914C5.54596 9.982 5.55796 10.038 5.58196 10.082C5.60996 10.126 5.65396 10.148 5.71396 10.148Z" fill="white"/>
<path d="M8.5026 8.03C8.3506 8.03 8.2426 7.95 8.1786 7.79C8.1186 7.63 8.0886 7.374 8.0886 7.022C8.0886 6.502 8.1626 6.008 8.3106 5.54C8.3466 5.424 8.4046 5.34 8.4846 5.288C8.5686 5.232 8.6846 5.204 8.8326 5.204C8.9126 5.204 8.9686 5.214 9.0006 5.234C9.0326 5.254 9.0486 5.292 9.0486 5.348C9.0486 5.412 9.0186 5.556 8.9586 5.78C8.9186 5.94 8.8866 6.08 8.8626 6.2C8.8386 6.32 8.8186 6.468 8.8026 6.644C8.9346 6.3 9.0826 6.02 9.2466 5.804C9.4106 5.588 9.5706 5.434 9.7266 5.342C9.8866 5.25 10.0326 5.204 10.1646 5.204C10.4246 5.204 10.5546 5.334 10.5546 5.594C10.5546 5.646 10.5366 5.772 10.5006 5.972C10.4686 6.132 10.4526 6.232 10.4526 6.272C10.4526 6.412 10.5026 6.482 10.6026 6.482C10.7146 6.482 10.8586 6.394 11.0346 6.218C11.0866 6.166 11.1406 6.14 11.1966 6.14C11.2486 6.14 11.2886 6.164 11.3166 6.212C11.3486 6.256 11.3646 6.316 11.3646 6.392C11.3646 6.54 11.3246 6.656 11.2446 6.74C11.1326 6.856 11.0006 6.956 10.8486 7.04C10.7006 7.12 10.5426 7.16 10.3746 7.16C10.1626 7.16 10.0006 7.106 9.8886 6.998C9.7806 6.89 9.7266 6.744 9.7266 6.56C9.7266 6.5 9.7326 6.44 9.7446 6.38C9.7526 6.3 9.7566 6.246 9.7566 6.218C9.7566 6.154 9.7346 6.122 9.6906 6.122C9.6306 6.122 9.5506 6.19 9.4506 6.326C9.3546 6.458 9.2586 6.634 9.1626 6.854C9.0666 7.074 8.9886 7.306 8.9286 7.55C8.8846 7.738 8.8326 7.866 8.7726 7.934C8.7166 7.998 8.6266 8.03 8.5026 8.03Z" fill="white"/>
<path d="M11.5931 4.808C11.4251 4.808 11.2991 4.77 11.2151 4.694C11.1311 4.614 11.0891 4.504 11.0891 4.364C11.0891 4.224 11.1431 4.108 11.2511 4.016C11.3631 3.92 11.5011 3.872 11.6651 3.872C11.8131 3.872 11.9331 3.908 12.0251 3.98C12.1171 4.052 12.1631 4.154 12.1631 4.286C12.1631 4.446 12.1111 4.574 12.0071 4.67C11.9031 4.762 11.7651 4.808 11.5931 4.808ZM11.5451 8.03C11.2851 8.03 11.0951 7.938 10.9751 7.754C10.8591 7.57 10.8011 7.326 10.8011 7.022C10.8011 6.842 10.8231 6.612 10.8671 6.332C10.9151 6.048 10.9751 5.784 11.0471 5.54C11.0831 5.412 11.1311 5.324 11.1911 5.276C11.2511 5.228 11.3471 5.204 11.4791 5.204C11.6831 5.204 11.7851 5.272 11.7851 5.408C11.7851 5.508 11.7471 5.74 11.6711 6.104C11.5751 6.544 11.5271 6.842 11.5271 6.998C11.5271 7.118 11.5431 7.21 11.5751 7.274C11.6071 7.338 11.6611 7.37 11.7371 7.37C11.8091 7.37 11.8991 7.32 12.0071 7.22C12.1151 7.12 12.2591 6.962 12.4391 6.746C12.4871 6.69 12.5411 6.662 12.6011 6.662C12.6531 6.662 12.6931 6.686 12.7211 6.734C12.7531 6.782 12.7691 6.848 12.7691 6.932C12.7691 7.092 12.7311 7.216 12.6551 7.304C12.2591 7.788 11.8891 8.03 11.5451 8.03Z" fill="white"/>
<path d="M13.0216 8.03C12.7736 8.03 12.5756 7.94 12.4276 7.76C12.2796 7.58 12.2056 7.344 12.2056 7.052C12.2056 6.732 12.2796 6.43 12.4276 6.146C12.5756 5.858 12.7716 5.628 13.0156 5.456C13.2636 5.28 13.5256 5.192 13.8016 5.192C13.8896 5.192 13.9476 5.21 13.9756 5.246C14.0076 5.278 14.0336 5.338 14.0536 5.426C14.1376 5.41 14.2256 5.402 14.3176 5.402C14.5136 5.402 14.6116 5.472 14.6116 5.612C14.6116 5.696 14.5816 5.896 14.5216 6.212C14.4296 6.672 14.3836 6.992 14.3836 7.172C14.3836 7.232 14.3976 7.28 14.4256 7.316C14.4576 7.352 14.4976 7.37 14.5456 7.37C14.6216 7.37 14.7136 7.322 14.8216 7.226C14.9296 7.126 15.0756 6.966 15.2596 6.746C15.3076 6.69 15.3616 6.662 15.4216 6.662C15.4736 6.662 15.5136 6.686 15.5416 6.734C15.5736 6.782 15.5896 6.848 15.5896 6.932C15.5896 7.092 15.5516 7.216 15.4756 7.304C15.3116 7.508 15.1376 7.68 14.9536 7.82C14.7696 7.96 14.5916 8.03 14.4196 8.03C14.2876 8.03 14.1656 7.986 14.0536 7.898C13.9456 7.806 13.8636 7.682 13.8076 7.526C13.5996 7.862 13.3376 8.03 13.0216 8.03ZM13.2376 7.424C13.3256 7.424 13.4096 7.372 13.4896 7.268C13.5696 7.164 13.6276 7.026 13.6636 6.854L13.8856 5.75C13.7176 5.754 13.5616 5.818 13.4176 5.942C13.2776 6.062 13.1656 6.222 13.0816 6.422C12.9976 6.622 12.9556 6.834 12.9556 7.058C12.9556 7.182 12.9796 7.274 13.0276 7.334C13.0796 7.394 13.1496 7.424 13.2376 7.424Z" fill="white"/>
<path d="M15.528 8.03C15.376 8.03 15.268 7.95 15.204 7.79C15.144 7.63 15.114 7.374 15.114 7.022C15.114 6.502 15.188 6.008 15.336 5.54C15.372 5.424 15.43 5.34 15.51 5.288C15.594 5.232 15.71 5.204 15.858 5.204C15.938 5.204 15.994 5.214 16.026 5.234C16.058 5.254 16.074 5.292 16.074 5.348C16.074 5.412 16.044 5.556 15.984 5.78C15.944 5.94 15.912 6.08 15.888 6.2C15.864 6.32 15.844 6.468 15.828 6.644C15.96 6.3 16.108 6.02 16.272 5.804C16.436 5.588 16.596 5.434 16.752 5.342C16.912 5.25 17.058 5.204 17.19 5.204C17.45 5.204 17.58 5.334 17.58 5.594C17.58 5.75 17.536 6.032 17.448 6.44C17.372 6.788 17.334 7.018 17.334 7.13C17.334 7.29 17.392 7.37 17.508 7.37C17.588 7.37 17.682 7.322 17.79 7.226C17.902 7.126 18.05 6.966 18.234 6.746C18.282 6.69 18.336 6.662 18.396 6.662C18.448 6.662 18.488 6.686 18.516 6.734C18.548 6.782 18.564 6.848 18.564 6.932C18.564 7.092 18.526 7.216 18.45 7.304C18.278 7.516 18.092 7.69 17.892 7.826C17.696 7.962 17.472 8.03 17.22 8.03C17.016 8.03 16.862 7.972 16.758 7.856C16.654 7.736 16.602 7.564 16.602 7.34C16.602 7.228 16.63 7.028 16.686 6.74C16.738 6.488 16.764 6.314 16.764 6.218C16.764 6.154 16.742 6.122 16.698 6.122C16.646 6.122 16.572 6.19 16.476 6.326C16.384 6.458 16.288 6.634 16.188 6.854C16.092 7.074 16.014 7.306 15.954 7.55C15.91 7.738 15.858 7.866 15.798 7.934C15.742 7.998 15.652 8.03 15.528 8.03Z" fill="white"/>
<path d="M20.0706 8.03C19.7146 8.03 19.3926 7.95 19.1046 7.79C18.8206 7.63 18.5946 7.396 18.4266 7.088C18.2586 6.776 18.1746 6.404 18.1746 5.972C18.1746 5.364 18.2846 4.828 18.5046 4.364C18.7286 3.9 19.0306 3.542 19.4106 3.29C19.7946 3.038 20.2186 2.912 20.6826 2.912C21.0386 2.912 21.3586 2.992 21.6426 3.152C21.9306 3.312 22.1586 3.548 22.3266 3.86C22.4946 4.168 22.5786 4.538 22.5786 4.97C22.5786 5.578 22.4666 6.114 22.2426 6.578C22.0226 7.042 21.7206 7.4 21.3366 7.652C20.9566 7.904 20.5346 8.03 20.0706 8.03ZM20.1306 7.322C20.4426 7.322 20.7166 7.226 20.9526 7.034C21.1926 6.842 21.3766 6.576 21.5046 6.236C21.6326 5.892 21.6966 5.504 21.6966 5.072C21.6966 4.596 21.5966 4.236 21.3966 3.992C21.1966 3.744 20.9386 3.62 20.6226 3.62C20.3146 3.62 20.0426 3.716 19.8066 3.908C19.5706 4.096 19.3866 4.362 19.2546 4.706C19.1226 5.046 19.0566 5.434 19.0566 5.87C19.0566 6.346 19.1566 6.708 19.3566 6.956C19.5566 7.2 19.8146 7.322 20.1306 7.322Z" fill="white"/>
<path d="M24.651 8.048C24.119 8.048 23.693 7.948 23.373 7.748C23.053 7.544 22.893 7.234 22.893 6.818C22.893 6.598 22.931 6.43 23.007 6.314C23.083 6.198 23.195 6.14 23.343 6.14C23.451 6.14 23.539 6.168 23.607 6.224C23.675 6.28 23.709 6.352 23.709 6.44C23.709 6.52 23.703 6.59 23.691 6.65C23.691 6.666 23.687 6.694 23.679 6.734C23.675 6.774 23.673 6.816 23.673 6.86C23.673 7.04 23.763 7.174 23.943 7.262C24.127 7.35 24.383 7.394 24.711 7.394C25.051 7.394 25.317 7.334 25.509 7.214C25.701 7.09 25.797 6.918 25.797 6.698C25.797 6.562 25.753 6.446 25.665 6.35C25.577 6.25 25.467 6.168 25.335 6.104C25.203 6.036 25.017 5.954 24.777 5.858C24.469 5.738 24.217 5.624 24.021 5.516C23.829 5.408 23.663 5.262 23.523 5.078C23.387 4.89 23.319 4.658 23.319 4.382C23.319 4.094 23.395 3.838 23.547 3.614C23.703 3.39 23.925 3.216 24.213 3.092C24.505 2.968 24.847 2.906 25.239 2.906C25.531 2.906 25.799 2.95 26.043 3.038C26.287 3.122 26.481 3.252 26.625 3.428C26.773 3.604 26.847 3.82 26.847 4.076C26.847 4.328 26.809 4.518 26.733 4.646C26.657 4.774 26.545 4.838 26.397 4.838C26.293 4.838 26.205 4.806 26.133 4.742C26.065 4.678 26.031 4.602 26.031 4.514C26.031 4.438 26.037 4.368 26.049 4.304C26.061 4.184 26.067 4.108 26.067 4.076C26.067 3.908 25.985 3.78 25.821 3.692C25.657 3.604 25.453 3.56 25.209 3.56C24.865 3.56 24.601 3.624 24.417 3.752C24.237 3.876 24.147 4.052 24.147 4.28C24.147 4.432 24.193 4.562 24.285 4.67C24.381 4.778 24.499 4.868 24.639 4.94C24.779 5.012 24.975 5.098 25.227 5.198C25.531 5.322 25.775 5.434 25.959 5.534C26.143 5.634 26.299 5.77 26.427 5.942C26.559 6.114 26.625 6.326 26.625 6.578C26.625 7.05 26.445 7.414 26.085 7.67C25.729 7.922 25.251 8.048 24.651 8.048Z" fill="white"/>
</svg>
